<?xml version="1.0" encoding="UTF-8"?>
<svg xmlns="http://www.w3.org/2000/svg" id="Icons" viewBox="0 0 60 60" width="512" height="512"><path d="M56.976,37A26.966,26.966,0,0,0,33.259,11.2C35.48,9,37,7.214,37,4.76c0-4.475-4.385-6.232-7-3.373-2.616-2.86-7-1.1-7,3.373C23,7.215,24.521,9,26.743,11.2A27.036,27.036,0,0,0,3.025,37,3,3,0,1,0,3,43H4c-.6.482-.857.709-2.7,2.4a1.985,1.985,0,0,0-.483,2.278L5.464,58.835a2,2,0,0,0,3.286.523c3.705-4,3.01-3.238,3.4-3.711C12.583,55.114,13.487,54,14.028,54h16.5a4.838,4.838,0,0,0,3.095-1.274L43.887,43H57a3,3,0,1,0-.024-6ZM29.138,10.749C26.559,8.238,25,6.724,25,4.76,25,3.422,25.7,2,27,2a2.573,2.573,0,0,1,2.08,1.552,1,1,0,0,0,1.837.006A2.577,2.577,0,0,1,33,2c1.3,0,2,1.422,2,2.76,0,2.223-2.211,4.112-4.411,6.254-.2,0-.392-.014-.589-.014C29.275,11,29.506,11.107,29.138,10.749ZM30,13A24.981,24.981,0,0,1,54.976,37H5.025A25.027,25.027,0,0,1,30,13Zm2.265,38.261A2.847,2.847,0,0,1,30.5,52H14.028c-1.492,0-2.614,1.379-3.433,2.385L7.3,58.033,2.654,46.873A24.59,24.59,0,0,1,7.549,43H30.12a1.579,1.579,0,0,1,1.21,1.274A1.756,1.756,0,0,1,29.588,46H19.518a1,1,0,0,0,0,2h10.07c2.564,0,4.541-2.692,3.426-5h7.965ZM57,41H3a1,1,0,0,1,0-2H57a1,1,0,0,1,0,2Z"/><path d="M23.664,16.691A20.985,20.985,0,0,0,9.829,30.863a1,1,0,1,0,1.921.558A18.99,18.99,0,0,1,24.268,18.6a1,1,0,0,0-.6-1.906Z"/></svg>
